<?xml version="1.0" encoding="UTF-8" standalone="no"?>
<!-- Created with Inkscape (http://www.inkscape.org/) -->

<svg
   width="161.92188mm"
   height="87.3125mm"
   viewBox="0 0 161.92188 87.3125"
   version="1.1"
   id="svg5"
   sodipodi:docname="bitmap.svg"
   xmlns:inkscape="http://www.inkscape.org/namespaces/inkscape"
   xmlns:sodipodi="http://sodipodi.sourceforge.net/DTD/sodipodi-0.dtd"
   xmlns="http://www.w3.org/2000/svg"
   xmlns:svg="http://www.w3.org/2000/svg">
  <sodipodi:namedview
     id="namedview7"
     pagecolor="#ffffff"
     bordercolor="#000000"
     borderopacity="0.25"
     inkscape:showpageshadow="2"
     inkscape:pageopacity="0.0"
     inkscape:pagecheckerboard="0"
     inkscape:deskcolor="#d1d1d1"
     inkscape:document-units="mm"
     showgrid="false" />
  <defs
     id="defs2">
    <rect
       x="78.696609"
       y="127.88199"
       width="620.8288"
       height="375.9949"
       id="rect357" />
    <rect
       x="120.23093"
       y="174.88135"
       width="597.87561"
       height="465.62161"
       id="rect236" />
  </defs>
  <g
     inkscape:label="Layer 1"
     inkscape:groupmode="layer"
     id="layer1"
     transform="translate(-20.111327,-31.09961)">
    <text
       xml:space="preserve"
       transform="scale(0.26458333)"
       id="text234"
       style="font-stretch:condensed;font-size:68.0315px;font-family:Komoda;-inkscape-font-specification:'Komoda Condensed';white-space:pre;shape-inside:url(#rect236);fill:none;stroke-width:5.38961;stroke-linecap:round;stroke-linejoin:round"><tspan
         x="120.23047"
         y="232.91173"
         id="tspan1925">WARZYWA</tspan></text>
    <g
       aria-label="WARZYWNIAK"
       transform="matrix(0.92274229,0,0,1.2504562,-39.611875,-126.60565)"
       id="text355"
       style="font-stretch:condensed;font-size:68.0315px;font-family:Komoda;-inkscape-font-specification:'Komoda Condensed';white-space:pre;shape-inside:url(#rect357);stroke-width:5.38961;stroke-linecap:round;stroke-linejoin:round">
      <path
         d="m 96.11333,136.38675 v 44.28851 c 0,1.42866 -1.156535,2.65323 -2.653228,2.65323 -1.428662,0 -2.585198,-1.22457 -2.585198,-2.65323 v -44.28851 h -2.653228 v 44.28851 c 0,1.42866 -1.156536,2.65323 -2.585197,2.65323 -1.496693,0 -2.653229,-1.22457 -2.653229,-2.65323 v -44.28851 h -2.585197 v 44.28851 c 0.136063,2.99338 2.381103,5.23842 5.238426,5.23842 1.564724,0 2.925354,-0.68031 3.877795,-1.76882 1.292599,1.22457 2.585197,1.76882 3.945828,1.76882 2.993386,0 5.238425,-2.44913 5.238425,-5.23842 v -44.28851 z"
         id="path1840" />
      <path
         d="m 107.33842,136.04659 c -2.92536,0 -5.23843,2.44914 -5.23843,5.23843 v 44.62866 h 2.65323 v -28.77732 h 5.23842 v 28.77732 h 2.65323 v -44.62866 c 0,-3.12945 -2.44913,-5.23843 -5.30645,-5.23843 z m -2.5852,18.43654 v -13.19811 c 0,-1.42866 1.15653,-2.5852 2.5852,-2.5852 1.49669,0 2.65322,1.15654 2.65322,2.5852 v 13.19811 z"
         id="path1837" />
      <path
         d="m 124.82251,155.77573 c 1.22457,-1.15654 1.76882,-2.44914 1.76882,-3.94583 v -10.20472 c 0,-2.99339 -2.10898,-5.23843 -5.23843,-5.23843 h -5.30646 v 49.52693 h 2.65323 v -28.84535 h 2.65323 c 1.42866,0 2.5852,1.15653 2.5852,2.65323 v 26.19212 h 2.65323 v -26.19212 c -0.068,-1.56473 -0.61229,-3.06142 -1.76882,-3.94583 z m -6.12284,-1.36063 v -15.37512 h 2.65323 c 1.42866,0 2.5852,1.15653 2.5852,2.5852 v 10.20472 c 0,1.42866 -1.15654,2.5852 -2.5852,2.5852 z"
         id="path1834" />
      <path
         d="m 132.71415,183.26045 8.70804,-47.21386 h -10.40882 v 2.65323 h 7.3474 l -8.70803,47.21386 h 24.89953 v -2.65323 z m 21.83812,-3.87779 v -43.33607 h -2.65323 v 18.36851 h -2.65323 c -1.42866,0 -2.65323,-1.15654 -2.65323,-2.65323 v -15.71528 h -2.65323 v 15.71528 c 0.13607,2.92535 2.44914,5.30646 5.30646,5.30646 h 2.65323 v 22.31433 z"
         id="path1831" />
      <path
         d="m 173.66907,136.38675 v 44.28851 c 0,1.42866 -1.15654,2.65323 -2.65323,2.65323 -1.42866,0 -2.5852,-1.22457 -2.5852,-2.65323 v -44.28851 h -2.65322 v 44.28851 c 0,1.42866 -1.15654,2.65323 -2.5852,2.65323 -1.49669,0 -2.65323,-1.22457 -2.65323,-2.65323 v -44.28851 h -2.5852 v 44.28851 c 0.13607,2.99338 2.38111,5.23842 5.23843,5.23842 1.56472,0 2.92535,-0.68031 3.87779,-1.76882 1.2926,1.22457 2.5852,1.76882 3.94583,1.76882 2.99339,0 5.23843,-2.44913 5.23843,-5.23842 v -44.28851 z"
         id="path1828" />
      <path
         d="m 185.23431,136.04659 c -1.02047,0 -2.31307,0.54425 -2.92535,1.2926 v -1.2926 h -2.65323 v 49.86709 h 2.65323 v -44.62866 c 0,-1.42866 1.0885,-2.5852 2.65323,-2.5852 1.42866,0 2.58519,1.15654 2.58519,2.5852 v 44.62866 h 2.65323 v -44.62866 c 0,-2.85732 -1.83685,-5.23843 -4.9663,-5.23843 z"
         id="path1825" />
      <path
         d="m 196.18738,136.38675 h -2.58519 v 49.52693 h 2.58519 z"
         id="path1822" />
      <path
         d="m 204.82734,136.04659 c -2.92536,0 -5.23843,2.44914 -5.23843,5.23843 v 44.62866 h 2.65323 v -28.77732 h 5.23842 v 28.77732 h 2.65323 v -44.62866 c 0,-3.12945 -2.44913,-5.23843 -5.30645,-5.23843 z m -2.5852,18.43654 v -13.19811 c 0,-1.42866 1.15653,-2.5852 2.5852,-2.5852 1.49669,0 2.65322,1.15654 2.65322,2.5852 v 13.19811 z"
         id="path1819" />
      <path
         d="m 222.31143,155.7077 c 1.36063,-1.22457 1.76882,-2.5852 1.76882,-3.8778 v -15.44315 h -2.65323 v 15.37512 c 0,1.42866 -1.15653,2.65323 -2.65323,2.65323 h -2.58519 v -18.02835 h -2.65323 v 49.52693 h 2.65323 v -28.84535 h 2.58519 c 1.4967,0 2.65323,1.2926 2.65323,2.72126 v 26.12409 h 2.65323 v -26.26016 c 0,-1.29259 -0.27213,-2.72126 -1.76882,-3.94582 z"
         id="path1816" />
    </g>
    <path
       style="color:#000000;fill:#000000;stroke-linecap:round;stroke-linejoin:round;-inkscape-stroke:none"
       d="m 21.125,31.099609 a 1.0147615,1.0147615 0 0 0 -1.013672,1.015625 v 85.281246 a 1.0147615,1.0147615 0 0 0 1.013672,1.01563 h 159.89453 a 1.0147615,1.0147615 0 0 0 1.01367,-1.01563 V 32.115234 a 1.0147615,1.0147615 0 0 0 -1.01367,-1.015625 z m 1.015625,2.029297 H 180.00391 V 116.38281 H 22.140625 Z"
       id="rect514" />
  </g>
</svg>
