<?xml version="1.0" encoding="UTF-8" standalone="no"?>
<!-- Created with Inkscape (http://www.inkscape.org/) -->

<svg
   width="70.191872mm"
   height="53.765537mm"
   viewBox="0 0 70.191872 53.765537"
   version="1.1"
   id="svg5"
   xmlns="http://www.w3.org/2000/svg"
   xmlns:svg="http://www.w3.org/2000/svg">
  <defs
     id="defs2" />
  <g
     id="layer1"
     transform="translate(-72.958383,-22.302204)">
    <rect
       style="fill:none;stroke:#000000;stroke-width:1.42648;stroke-dasharray:none;stroke-opacity:1"
       id="rect483"
       width="68.765388"
       height="52.339054"
       x="73.671623"
       y="23.015444" />
    <g
       aria-label="ZIELSKO"
       id="text185"
       style="font-stretch:condensed;font-size:42.2021px;font-family:Komoda;-inkscape-font-specification:'Komoda Condensed';fill:#000000;fill-opacity:1;stroke:none;stroke-width:0.4;stroke-linecap:round;stroke-linejoin:round">
      <path
         d="M 85.046854,62.242931 89.731287,33.123483 H 83.14776 v 1.60368 h 4.64223 l -4.64223,29.119448 h 6.583527 v -1.60368 z"
         id="path6442"
         style="fill:#000000;fill-opacity:1;stroke:none" />
      <path
         d="m 92.811985,33.123483 h -1.60368 v 30.723128 h 1.60368 z"
         id="path6444"
         style="fill:#000000;fill-opacity:1;stroke:none" />
      <path
         d="m 96.441338,44.307039 v -9.537674 h 4.895442 v -1.645882 h -6.499122 v 30.723128 h 6.499122 V 62.200729 H 96.441338 V 45.952921 h 4.895442 v -1.645882 z"
         id="path6446"
         style="fill:#000000;fill-opacity:1;stroke:none" />
      <path
         d="m 115.34781,37.807916 v -1.645882 c 0,-1.941296 -1.56148,-3.249561 -3.29177,-3.249561 -1.81469,0 -3.24956,1.519275 -3.24956,3.249561 v 6.456921 c 0,2.152307 1.35047,3.122956 3.29177,3.291764 0.88624,0.0844 1.60368,0.759638 1.60368,1.645882 v 8.989047 c 0,0.886244 -0.71744,1.645882 -1.64589,1.645882 -0.88624,0 -1.60368,-0.759638 -1.60368,-1.645882 V 54.98417 h -1.64588 v 1.561478 c 0,1.899094 1.51928,3.249562 3.24956,3.249562 1.81469,0 3.29177,-1.434872 3.29177,-3.249562 v -8.989047 c 0,-1.941297 -1.47708,-3.249562 -3.29177,-3.249562 -0.92844,0 -1.60368,-0.717435 -1.60368,-1.603679 v -6.541326 c 0,-0.886244 0.71744,-1.60368 1.60368,-1.60368 0.92845,0 1.64589,0.717436 1.64589,1.60368 v 1.645882 z M 104.71288,62.242931 V 32.912473 h -1.60368 v 30.934138 h 12.23861 v -1.60368 z"
         id="path6448"
         style="fill:#000000;fill-opacity:1;stroke:none" />
      <path
         d="m 122.90191,45.108879 c 0.84404,-0.759638 1.09725,-1.60368 1.09725,-2.405519 v -9.579877 h -1.64588 v 9.537674 c 0,0.886244 -0.71743,1.645882 -1.64588,1.645882 h -1.60368 V 33.123483 h -1.64588 v 30.723128 h 1.64588 v -17.89369 h 1.60368 c 0.92845,0 1.64588,0.80184 1.64588,1.688084 v 16.205606 h 1.64588 v -16.29001 c 0,-0.80184 -0.1688,-1.688084 -1.09725,-2.447722 z"
         id="path6450"
         style="fill:#000000;fill-opacity:1;stroke:none" />
      <path
         d="m 129.40103,32.701462 c -1.89909,0 -3.29176,1.477074 -3.29176,3.249562 V 60.80806 c 0,1.81469 1.43487,3.291764 3.29176,3.291764 1.85689,0 3.24956,-1.477074 3.24956,-3.291764 V 35.951024 c 0,-1.899095 -1.47707,-3.249562 -3.24956,-3.249562 z m 1.60368,28.106598 c 0,0.928446 -0.71744,1.645882 -1.60368,1.645882 -0.92845,0 -1.64588,-0.717436 -1.64588,-1.645882 V 35.951024 c 0,-0.886244 0.67523,-1.60368 1.60368,-1.60368 0.97065,0 1.64588,0.717436 1.64588,1.60368 z"
         id="path6452"
         style="fill:#000000;fill-opacity:1;stroke:none" />
    </g>
  </g>
</svg>
