<?xml version="1.0" standalone="no"?>
<!DOCTYPE svg PUBLIC "-//W3C//DTD SVG 1.1//EN" 
  "http://www.w3.org/Graphics/SVG/1.1/DTD/svg11.dtd">
<svg width="111.0mm" height="76.0mm" viewBox="0 0 111.0 76.0"
     xmlns="http://www.w3.org/2000/svg" version="1.1">
<desc>Outline to SVG export</desc>
	<path fill-rule="evenodd" fill="#000000" stroke="#555555" stroke-width="0" opacity="1" d="M 0.0,72.9999998077375 L 7.945913217045032e-09,73.00000019209823 L 0.010246268314920377,73.24771097516667 L 0.010246302412194153,73.24771138670474 L 0.04091641311068845,73.49380469284668 L 0.04091642216372955,73.49380474492733 L 0.04091647266008871,73.49380507373802 L 0.0917968325276244,73.73651102786998 L 0.09179687238947158,73.73651118526794 L 0.09179693408076152,73.73651142886136 L 0.16255182097093657,73.97410563713544 L 0.16255195490653743,73.97410602725488 L 0.25267784221004674,74.20510844965187 L 0.252678008453545,74.20510882861596 L 0.36157980434476183,74.4278104835175 L 0.36158000067567014,74.4278108462647 L 0.4884947672164712,74.6408079278569 L 0.4884948039970042,74.64080798415443 L 0.48849490595330036,74.6408081478888 L 0.4884949913024606,74.64080827109545 L 0.6325758685814563,74.842605422487 L 0.6325761224557065,74.842605748647 L 0.7928312877256937,75.0317991591857 L 0.7928315665603923,75.03179946213159 L 0.9681547604696472,75.2071989498589 L 0.9681550656537021,75.20719923082433 L 1.15735610481654,75.36740098978 L 1.1573564300420855,75.3674012428937 L 1.3591612116938956,75.51150500894563 L 1.3591613342204945,75.51150509382992 L 1.3591614983926852,75.51150519606671 L 1.3591615547477867,75.51150523288608 L 1.5721586359180384,75.63841236979367 L 1.5721589991639464,75.63841256635627 L 1.794906431200722,75.74729910389664 L 1.7949068080341672,75.74729926924817 L 2.0259016007310944,75.8375090796273 L 2.0259019937507423,75.8375092145669 L 2.263541977852377,75.90820306626479 L 2.2635422240104583,75.90820312858293 L 2.263542284347645,75.90820314456553 L 2.506217828425257,75.95910641843871 L 2.5062180168436305,75.95910644673103 L 2.5062181615412866,75.959106470892 L 2.7522580948049473,75.98980710320473 L 2.7522585081793935,75.98980713743926 L 2.9999998972838853,75.99999999577393 L 3.0000001028030674,76.0 L 50.99999989719528,76.0 L 51.00000010271801,75.99999999577379 L 51.24773767712485,75.98980713743933 L 51.24773809049617,75.98980710320492 L 51.49377802376951,75.95910647089099 L 51.493778168507156,75.95910644672358 L 51.493778356889,75.95910641843672 L 51.73645762309461,75.90820316728927 L 51.73645777612351,75.90820312854825 L 51.73645802215521,75.90820306626253 L 51.97409800623599,75.83750921457084 L 51.974098399281466,75.83750907962114 L 52.20508937728191,75.74729926924421 L 52.205089754089485,75.74729910390276 L 52.42783718615645,75.63841256634763 L 52.427837549368554,75.63841236980518 L 52.6408384452153,75.51150523290619 L 52.64083850155531,75.51150519609662 L 52.64083866580232,75.51150509381283 L 52.64083878827929,75.51150500896254 L 52.84263975525991,75.36740124289649 L 52.84264008048674,75.36740098977684 L 53.03183730501338,75.20719923077486 L 53.03183761008312,75.20719894991801 L 53.20716843337722,75.03179946218766 L 53.20716871232661,75.0317991591202 L 53.36742006284758,74.84260574865012 L 53.36742031672035,74.84260542248384 L 53.51149737927626,74.6408082711373 L 53.51149746468021,74.64080814785278 L 53.51149756653231,74.64080798428745 L 53.51149760334402,74.64080792794304 L 53.63841999926806,74.42781084634848 L 53.638420195696945,74.42781048342572 L 53.747318176882686,74.20510882855397 L 53.74731834306987,74.20510844971851 L 53.83744804506422,73.9741060273217 L 53.83744817904692,73.97410563706481 L 53.90819925123543,73.73651142882687 L 53.908199312927024,73.7365111852247 L 53.90819932968238,73.7365111219899 L 53.959079715443806,73.49380506037612 L 53.95907974366349,73.49380487236927 L 53.95907976799091,73.49380472655609 L 53.989749882895296,73.24771138666655 L 53.989749916989396,73.24771097520527 L 53.99999999572536,73.00000010330413 L 54.0,72.99999989660752 L 54.0,72.90000915527344 L 53.99999999999986,58.00000018691522 L 54.00000000698459,57.99999981322298 L 54.011177048999876,57.70111121391176 L 54.01117710490328,57.70111046786837 L 54.04467769247914,57.40380896555547 L 54.04467780393765,57.40380822611486 L 54.10028832153518,57.10990942533395 L 54.10028848798129,57.10990869612936 L 54.1620914463977,56.87927509875928 L 54.17770757534915,56.820999506629846 L 54.17770779558328,56.82099879261965 L 54.276508207540424,56.53860509005736 L 54.27650848118522,56.53860439285382 L 54.396118014651734,56.26451145078282 L 54.39611833860173,56.2645107781157 L 54.53589994115416,56.0000003308001 L 54.53590031500986,55.99999968318768 L 54.6950376426545,55.7467044185329 L 54.69503806407947,55.74670380036756 L 54.71260624533574,55.72289875442005 L 54.71280106013551,55.72263477858828 L 54.87266899752172,55.50601226431103 L 54.872669464348014,55.506011678958295 L 55.067786926398036,55.2793124172971 L 55.06778743492042,55.27931186930266 L 55.27910045650389,55.06801790243807 L 55.27930805449402,55.06781032316767 L 55.2793086027216,55.06780981453354 L 55.50603838307316,54.87271142489931 L 55.50603896580408,54.872710960114965 L 55.56484673480551,54.8292909117552 L 55.7467190580462,54.695007547422485 L 55.746719678555756,54.69500712433231 L 55.99999968398768,54.53590412917364 L 56.00000032992909,54.53590375626026 L 56.264468815320534,54.396103080459 L 56.26446949032189,54.396102755391155 L 56.479550627223944,54.30228007334316 L 56.538638726008394,54.27650466604839 L 56.538639421399,54.2765043931465 L 56.82097971834515,54.177703981185175 L 56.820980433967975,54.17770376047337 L 57.109916325886566,54.10031137602538 L 57.109917054351186,54.10031120980241 L 57.27524156751354,54.069034585094705 L 57.40382729997321,54.04470832143315 L 57.40382803866137,54.04470821008362 L 57.677984030185684,54.01380351917658 L 57.70107995043511,54.01119999308709 L 57.70108069618882,54.011199937161685 L 57.999999812856444,54.00000000701191 L 58.00000018727468,54.0 L 65.69999676096751,54.0 L 65.69999713538574,54.00000000701191 L 65.99891625206054,54.011199937161955 L 65.99891699780005,54.01119999308576 L 66.29617272425907,54.044708210082014 L 66.29617346298473,54.04470832143755 L 66.59007989391904,54.10031120980681 L 66.59008062232849,54.10031137601683 L 66.87902032895524,54.1777037604703 L 66.87902104460993,54.177703981190646 L 67.16136134154037,54.276504393146475 L 67.16136203693098,54.27650466604836 L 67.32415002060357,54.34751603158852 L 67.4355312725901,54.39610275537917 L 67.43553194764415,54.39610308047486 L 67.69999661834052,54.53590375627224 L 67.69999726422924,54.53590412915777 L 67.88478841305573,54.651984453804666 L 67.95327726965436,54.69500712431216 L 67.95327789022484,54.695007547447325 L 68.02563519315457,54.74843258706691 L 68.19395416777316,54.87271096013532 L 68.19395475044314,54.87271142487468 L 68.29682289155706,54.96122828686288 L 68.42068453085744,55.06780981456291 L 68.42068507902127,55.06781032313328 L 68.63220951332167,55.27931186930733 L 68.63221002184476,55.27931241729226 L 68.82733129852359,55.506011678885024 L 68.82733176547387,55.50601226439358 L 68.91732632975499,55.62795833921277 L 69.00495888422842,55.74670380045011 L 69.00495930553501,55.74670441844146 L 69.14476893760848,55.96923089549398 L 69.16410044786733,55.99999968309617 L 69.16410082183315,56.000000330899695 L 69.30387860969793,56.26451077821547 L 69.30387893354849,56.26451145067576 L 69.4234922817268,56.538604392801886 L 69.42349255541835,56.538605090112576 L 69.52229296733572,56.82099879256119 L 69.52229318760175,56.820999506690384 L 69.55275135811856,56.93466758603701 L 69.59970846028136,57.10990869618795 L 69.59970862669557,57.10990942527355 L 69.65531914430456,57.40380822611502 L 69.65531925576306,57.403808965555626 L 69.68881984333889,57.70111046786836 L 69.6888198992423,57.70111121391175 L 69.69999694125745,57.99999981321914 L 69.69999694824219,58.000000186911386 L 69.69999694824219,72.99999989656901 L 69.69999695252001,73.00000010334242 L 69.71025084594848,73.24771097524393 L 69.71025088003938,73.24771138662825 L 69.7409209949579,73.49380472663117 L 69.7409210193226,73.49380487268132 L 69.7409210475001,73.49380506041666 L 69.79179378076047,73.73651102779503 L 69.79179382075108,73.73651118571141 L 69.79179388234452,73.73651142893378 L 69.86254876919257,73.97410563706644 L 69.86254890318041,73.97410602731982 L 69.95268241989233,74.20510844978497 L 69.95268258602336,74.20510882849217 L 70.06157675253267,74.4278104833935 L 70.06157694899176,74.42781084637807 L 70.18849934488242,74.64080792791661 L 70.1884993816557,74.64080798420144 L 70.18849948352883,74.64080814779939 L 70.18849956901195,74.64080827119737 L 70.33258044625235,74.84260542253486 L 70.33258070005071,74.84260574860528 L 70.49282823589863,75.03179915909645 L 70.49282851488557,75.03179946220827 L 70.66815933814155,75.2071989499005 L 70.66815964324896,75.20719923078923 L 70.85736068248754,75.36740098980901 L 70.85736100764002,75.36740124287054 L 71.05915815988227,75.51150500890273 L 71.0591582825105,75.51150509385857 L 71.05915844673844,75.51150519613147 L 71.05915850302802,75.51150523290875 L 71.27215558413144,75.63841236977652 L 71.2721559474374,75.63841256636843 L 71.4949110088917,75.74729910392627 L 71.49491138561258,75.74729926922788 L 71.72589854894824,75.83750907961502 L 71.72589894201958,75.83750921457482 L 71.96353892607938,75.90820306626027 L 71.96353917207165,75.9082031285356 L 71.9635392325026,75.9082031445432 L 72.20622240607753,75.95910641844281 L 72.20622259443513,75.95910644672553 L 72.20622273915268,75.95910647088964 L 72.4522550430379,75.98980710320276 L 72.45225545643098,75.98980713743964 L 72.69999684552607,75.99999999577393 L 72.69999705104524,76.0 L 107.99999989719694,76.0 L 108.00000010271611,75.99999999577393 L 108.24774149181121,75.98980713743964 L 108.2477419052043,75.98980710320276 L 108.49377420910524,75.95910647088766 L 108.49377435387153,75.9591064467159 L 108.49377454217309,75.9591064184419 L 108.73646525246573,75.90820316729219 L 108.73646540574579,75.90820312848835 L 108.73646565157264,75.90820306625571 L 108.97410563561714,75.83750921457482 L 108.97410602868848,75.83750907961502 L 109.2050931919927,75.74729926924016 L 109.20509356877417,75.74729910390892 L 109.42784100083607,75.63841256635625 L 109.42784136408196,75.63841236979367 L 109.64083844521417,75.51150523290875 L 109.64083850150375,75.51150519613147 L 109.64083866573165,75.5115050938586 L 109.64083878836007,75.51150500890263 L 109.84263594064264,75.36740124284164 L 109.84263626571942,75.36740098984421 L 110.03184493430564,75.20719923085335 L 110.03184523956546,75.20719894982379 L 110.20716843339822,75.031799462173 L 110.20716871230846,75.03179915913789 L 110.36741624823183,74.84260574855763 L 110.36741650195772,74.84260542258875 L 110.51150500852097,74.64080827133398 L 110.51150509418332,74.64080814767868 L 110.51150519609635,74.64080798401861 L 110.5115052327866,74.6408079278624 L 110.6384276286095,74.42781084643755 L 110.63842782512933,74.4278104833288 L 110.74731436225443,74.20510882843239 L 110.74731452832467,74.20510844984956 L 110.83744804506178,73.97410602731982 L 110.83744817904962,73.97410563706644 L 110.9082030658977,73.73651142893368 L 110.90820312748981,73.73651118571651 L 110.90820314434258,73.73651112211306 L 110.95907590074121,73.49380506042084 L 110.95907592891818,73.49380487268972 L 110.9590759532843,73.49380472663104 L 110.9897460682028,73.24771138662825 L 110.98974610229371,73.24771097524393 L 110.99999999572218,73.00000010334242 L 111.0,72.99999989656901 L 111.0,72.72621163546074 L 110.99999999693054,72.72621146029614 L 110.99752808221668,72.65570085601969 L 110.9975280582525,72.65570051199497 L 110.99061585299086,72.58950813578076 L 110.99061583394803,72.58950797780335 L 110.99008180087311,72.58560190731258 L 110.99008176926662,72.58560170661111 L 110.97772219878664,72.5163118182782 L 110.977722188687,72.51631177126607 L 110.97772218205725,72.51631174016497 L 110.97772212705631,72.51631148012062 L 110.96263124870887,72.45530710030965 L 110.96263119888083,72.45530691432181 L 110.9604950199888,72.44790658030301 L 110.96049496717156,72.44790640892586 L 110.9385223943538,72.38090532056282 L 110.93852236956984,72.38090525319035 L 110.93852235369084,72.38090520971483 L 110.9385222744724,72.38090499125286 L 110.91656497384331,72.32630928475466 L 110.91656490618489,72.32630912462477 L 110.91186527597556,72.31570443957452 L 110.91186518895537,72.31570425361889 L 110.88069160597055,72.25250259883519 L 110.88069155872148,72.252502510958 L 110.88069152758413,72.25250245258441 L 110.88069144296855,72.25250229268295 L 110.85331730272955,72.20480353995882 L 110.85331721631078,72.20480339509321 L 110.84513860862351,72.19160470917998 L 110.84513848680616,72.1916045220566 L 110.80537423092706,72.1334077177884 L 110.80537405267886,72.13340747315735 L 110.77401739068915,72.09300239240369 L 110.77401727461583,72.09300224841537 L 110.76162726574178,72.07820137574565 L 110.76162712536261,72.07820121514054 L 110.71409617147933,72.02610790003378 L 110.71409596059884,72.02610768253115 L 110.6802063588958,71.99320989717691 L 110.68020623684197,71.99320978260113 L 110.66300973052381,71.97760017659984 L 110.66300955297416,71.9776000228841 L 110.60862742893697,71.9327088307075 L 110.60862720477188,71.93270865613417 L 110.57362373107097,71.90701299366148 L 110.5736235814456,71.90701288798608 L 110.55122389489932,71.89180002185077 L 110.55122360875467,71.89179984135399 L 110.4562684623547,71.8363037996608 L 110.45626815287982,71.83630363310077 L 110.42851271552406,71.82260138860079 L 110.42851257868536,71.82260132636551 L 110.42851248435943,71.8226012812914 L 110.34077465911118,71.78601079347483 L 110.34077441059718,71.78601069752402 L 110.33035289432878,71.78230289598197 L 110.33035267033654,71.78230282219333 L 110.24995438748942,71.75790410246046 L 110.24995405675737,71.75790401433825 L 110.19822704824472,71.74600222476897 L 110.19822680797208,71.74600217565738 L 110.15687577389959,71.73860171383997 L 110.15687544522099,71.73860166622543 L 110.06237804961958,71.72810365101894 L 110.06237781042623,71.72810363027534 L 107.9999999999785,71.59921264648302 L 100.02806096079667,71.10101318657539 L 100.02806086532698,71.10101318152489 L 100.0072785505032,71.10011291972269 L 100.00727833416107,71.10011291503858 L 76.00000026291525,71.10000610351679 L 75.99999973744792,71.10000608969911 L 75.79093985215154,71.08900454402371 L 75.79093881564216,71.08900443509252 L 75.58416799967492,71.05630501374961 L 75.58416697273225,71.05630479554947 L 75.38195851312983,71.00210584833336 L 75.38195751938662,71.00210552545985 L 75.1865239265343,70.92710895231268 L 75.18652297074799,70.92710852691954 L 75.00000046931763,70.83210778298094 L 74.99999955838858,70.83210725693243 L 74.82443281025752,70.71800260348866 L 74.82443196776059,70.71800199125246 L 74.66174357154384,70.58630404079788 L 74.66174279330666,70.5863033402772 L 74.51371039330269,70.43830908705465 L 74.51370969156221,70.43830830773939 L 74.38197359624058,70.27560465517503 L 74.38197298130459,70.27560380870557 L 74.26794462119376,70.10000654279423 L 74.26794409813257,70.10000563684063 L 74.17291283591045,69.9135136511504 L 74.172912409647,69.91351269366847 L 74.09788531937197,69.71800280802805 L 74.09788499634523,69.7180018137354 L 74.0495844854191,69.53776242475145 L 74.04370130751877,69.51580861164042 L 74.04370108987887,69.515807587892 L 74.0252061119572,69.39906342622997 L 74.01095589259107,69.3091130667082 L 74.01095578311258,69.30911202520754 L 74.00000001369719,69.10000636494499 L 74.0,69.10000584172802 L 74.0,56.90000941706106 L 74.00000001369719,56.90000889384408 L 74.00044265891376,56.89156041188334 L 74.01095578311258,56.690903233581516 L 74.01095589259107,56.69090219208086 L 74.04370108987885,56.48420767089713 L 74.04370130751876,56.48420664714869 L 74.09788499634523,56.28201344505363 L 74.09788531937197,56.282012450760995 L 74.17291240964697,56.08650256512066 L 74.17291283591042,56.086501607638716 L 74.26794409813259,55.90000962194839 L 74.26794462119378,55.9000087159948 L 74.38197298130456,55.72441145008354 L 74.38197359624056,55.72441060361407 L 74.51370969156227,55.5617069510496 L 74.51371039330274,55.56170617173436 L 74.66174279330666,55.413711918511865 L 74.66174357154384,55.41371121799118 L 74.69284487912766,55.38853438571243 L 74.8244319677605,55.28201326753666 L 74.82443281025743,55.28201265530046 L 74.94110010213554,55.20618804130216 L 74.99999955838858,55.16790800185663 L 75.00000046931763,55.16790747580812 L 75.18652297063134,55.07290673192893 L 75.18652392666147,55.07290630644224 L 75.3819727782929,54.99790973326959 L 75.38197377179232,54.997909410489626 L 75.58418223157658,54.94371046322479 L 75.58418325840678,54.943710245042446 L 75.79093881558666,54.91101082371134 L 75.7909398522085,54.911010714762355 L 75.98962754952507,54.90055499402918 L 75.9999997374257,54.90000916909112 L 76.00000026293752,54.90000915527344 L 105.99999973706248,54.90000915527344 L 106.0000002625743,54.90000916909112 L 106.2090601477915,54.911010714762355 L 106.20906118441334,54.91101082371134 L 106.41581674159322,54.943710245042446 L 106.41581776842342,54.94371046322479 L 106.61802622820768,54.997909410489626 L 106.6180272217071,54.99790973326959 L 106.81347607333853,55.07290630644224 L 106.81347702936866,55.07290673192893 L 106.99999953068237,55.16790747580812 L 107.00000044161142,55.16790800185663 L 107.17556718974255,55.28201265530045 L 107.17556803223948,55.28201326753665 L 107.3382564285566,55.41371121807249 L 107.33825720661154,55.413711918410996 L 107.40245597287824,55.47789083348218 L 107.48629723589042,55.56170617155217 L 107.48629793799137,55.561706951269734 L 107.61802640386031,55.724410603715086 L 107.61802701861808,55.724411449964414 L 107.73205537880622,55.9000087159948 L 107.73205590186741,55.90000962194839 L 107.82708716408958,56.08650160763871 L 107.82708759035303,56.086502565120654 L 107.90211468062805,56.28201245076103 L 107.90211500365479,56.282013445053664 L 107.95629869248124,56.48420664714869 L 107.95629891012115,56.48420767089713 L 107.98904410740893,56.69090219208082 L 107.98904421688742,56.69090323358147 L 107.99999998630281,56.90000889384408 L 108.0,56.90000941706106 L 108.0,68.81249986600584 L 108.00000000055655,68.81249989771382 L 108.00000000751952,68.81249999343154 L 108.00000003370211,68.81249999563109 L 108.00000021797486,68.81250001362429 L 109.93762192532961,68.93360899972706 L 109.9376222155771,68.93360900941668 L 110.05416850943627,68.93411254799973 L 110.05416889240749,68.93411253496515 L 110.08595262045743,68.93180848170756 L 110.08595274222294,68.9318084694777 L 110.0859528963521,68.93180845399729 L 110.16999798410346,68.92100527278306 L 110.16999835150476,68.92100521156505 L 110.23239121144871,68.90820315495145 L 110.23239125507708,68.90820314463595 L 110.23239137800499,68.90820311783922 L 110.23239148645038,68.90820308992996 L 110.23239150135203,68.9082030864066 L 110.2834928660424,68.894500779601 L 110.28349321404083,68.89450067255989 L 110.37370286174831,68.86311345244245 L 110.37370303448164,68.86311338649075 L 110.37370306934058,68.86311337355414 L 110.39315785282288,68.85501103054125 L 110.39315806300104,68.85501093728 L 110.45910630199704,68.82391364179786 L 110.45910658406027,68.82391349769887 L 110.50680533801079,68.79760746704925 L 110.50680537101306,68.7976074480347 L 110.52261342992516,68.78810125369732 L 110.52261361820486,68.78810113468505 L 110.58332809366128,68.74780283619788 L 110.58332821057357,68.74780275223956 L 110.58332828304324,68.74780270068376 L 110.5833283939779,68.74780262250417 L 110.62875358162894,68.71321112085656 L 110.62875360491786,68.7132111023658 L 110.64096061507766,68.70310980598903 L 110.64096076894515,68.703109673305 L 110.69517503402311,68.65440380949164 L 110.69517514286896,68.65440370421643 L 110.69517519472298,68.65440365442296 L 110.69517529954054,68.6544035544923 L 110.73687737264665,68.61160285377419 L 110.7368774091603,68.61160281479044 L 110.74569695423082,68.60180671532527 L 110.74569708568194,68.60180656328082 L 110.79226672968265,68.54570021302176 L 110.79226685181776,68.54570005449538 L 110.79226688531682,68.54570001126005 L 110.79226695398106,68.54569992313783 L 110.82876582047287,68.49510199617845 L 110.82876589398121,68.49510189061672 L 110.83460992274064,68.48640451212604 L 110.83461004371675,68.48640432304789 L 110.87252798142532,68.42410293887724 L 110.87252808033504,68.42410276217075 L 110.87252810495791,68.42410271843877 L 110.8725281614718,68.4241026186526 L 110.90243525631725,68.36640939130024 L 110.90243528905218,68.3664093249077 L 110.9058074560721,68.35920723671065 L 110.90580753106579,68.35920706854715 L 110.93426506562479,68.29209916667558 L 110.93426513661767,68.29209898069703 L 110.93426514849851,68.29209894972732 L 110.93426519644,68.29209882537562 L 110.95623775949979,68.22821054653443 L 110.95623778605614,68.22821046382097 L 110.9577636470285,68.22309883811843 L 110.95776369381552,68.22309867083209 L 110.97616572532657,68.1526033262375 L 110.97616578370943,68.15260306367125 L 110.97616578780855,68.15260304531763 L 110.97616580530332,68.1526029673306 L 110.98899839552271,68.08351144710065 L 110.98899841724338,68.08351131617667 L 110.98937986988783,68.0809021880139 L 110.98937989257041,68.08090201079739 L 110.9973449507606,68.00840777428088 L 110.99734497734845,68.00840741029455 L 110.99999999668808,67.93550118957741 L 111.0,67.93550100762812 L 111.0,3.0000001034369794 L 110.99999999572167,2.9999998966516324 L 110.98974610229398,2.752304283538749 L 110.98974606820359,2.752303872167115 L 110.9590759532843,2.50621053215798 L 110.95907592891815,2.5062103860991467 L 110.95907590074123,2.5062101983683056 L 110.90820316748176,2.26350423099424 L 110.90820312748981,2.2635040730725744 L 110.90820306589767,2.2635038298552623 L 110.8374481790496,2.0259096217225787 L 110.83744804506179,2.0259092314692904 L 110.7473145283247,1.7949068089395843 L 110.74731436225437,1.7949064303565558 L 110.6384278251294,1.5722047754604116 L 110.63842762860943,1.572204412351387 L 110.51150523278645,1.3592073309263941 L 110.51150519611747,1.3592072748027497 L 110.51150509421545,1.3592071111592843 L 110.51150500847973,1.3592069873973418 L 110.36741650189978,1.1574098361191705 L 110.36741624830253,1.1574095103021893 L 110.20716871236658,0.9682008409434131 L 110.20716843332781,0.9682005377565633 L 110.03184523956556,0.7928010501763134 L 110.03184493430558,0.7928007691466024 L 109.84263626581505,0.6325990102367498 L 109.84263594053465,0.6325987570939331 L 109.64083878806967,0.4885102496665818 L 109.6408386659847,0.4885101650889573 L 109.64083850187589,0.4885100628925403 L 109.64083844532153,0.48851002594427617 L 109.42784136396301,0.36160288892451814 L 109.42784100096553,0.36160269248338134 L 109.20509356902214,0.25270089622499164 L 109.205093191726,0.25270073066837134 L 108.97410602855938,0.16250617911084284 L 108.97410563575453,0.16250604425510837 L 108.73646565157249,0.09181219253330312 L 108.7364654057854,0.09181213031073371 L 108.73646534524578,0.09181211427412037 L 108.49377454217544,0.04090884034766166 L 108.49377435387666,0.040908812074031305 L 108.49377420910507,0.04090878790137406 L 108.24774190505175,0.01020815556725766 L 108.24774149196531,0.010208121342990472 L 108.00000010286993,4.238727675257106e-09 L 107.99999989704278,0.0 L 3.0000001029572236,0.0 L 2.999999897130067,4.238727839804662e-09 L 2.752258508025171,0.010208121343382644 L 2.7522580949576003,0.010208155565294611 L 2.506218161541326,0.04090878789705954 L 2.5062180168386003,0.040908812058875914 L 2.506217828422841,0.04090884035085494 L 2.263542376897369,0.0918120915008156 L 2.2635422239707226,0.09181213021619869 L 2.263541977852337,0.09181219252429096 L 2.02590199361323,0.16250604426307236 L 2.0259016008603052,0.16250617909852347 L 1.7949068083009425,0.25270073066032894 L 1.7949064309526879,0.25270089623730047 L 1.572158999034601,0.3616026924833195 L 1.5721586360368787,0.3616028889245843 L 1.3591615546400755,0.48851002596715265 L 1.3591614980202842,0.4885100629574416 L 1.3591613339673934,0.4885101651176443 L 1.359161211985091,0.48851024962302636 L 1.1573564301498578,0.6325987570420357 L 1.1573561047210352,0.6325990103008787 L 0.9681550656537926,0.7928007691755897 L 0.9681547604695432,0.7928010501411947 L 0.7928315666307177,0.9682005377980527 L 0.7928312876676574,0.9682008408955042 L 0.6325761223851801,1.1574095102125923 L 0.6325758686392452,1.1574098362211231 L 0.4884949913434965,1.359206987636138 L 0.48849490592124045,1.3592071109490478 L 0.4884948039757376,1.3592072746671888 L 0.48849476721640506,1.3592073309322787 L 0.3615800006756933,1.572204412524319 L 0.3615798043447408,1.5722047752716002 L 0.2526780084535454,1.794906430173099 L 0.2526778422100452,1.7949068091371954 L 0.16255195490655974,2.025909231534125 L 0.16255182097093,2.025909621653642 L 0.09179693408076434,2.263503829927692 L 0.0917968723894522,2.2635040735211964 L 0.09179685561342343,2.2635041368330917 L 0.04091646985879988,2.5062101984135667 L 0.04091644163904709,2.506210386420983 L 0.04091641731182719,2.5062105322329407 L 0.010246302411405927,2.752303872090649 L 0.010246268314658509,2.7523042836160068 L 4.27199893030689e-09,2.999999896727686 L 0.0,3.0000001033606347 L 0.0,72.9999998077375 z M 105.96184056612795,49.38757127584799 L 106.00514171858491,49.459746478176434 L 106.0051422475434,49.459747485706146 L 106.03742980903743,49.53079976735103 L 106.06503943759611,49.591599749920675 L 106.08531681186344,49.63625315767688 L 106.08531722231542,49.6362542178319 L 106.09708407225979,49.672672121473376 L 106.11666263888974,49.733266958353106 L 106.14492151724586,49.820858626371134 L 106.14492180419653,49.82085972620011 L 106.16194264686436,49.90554249694925 L 106.16979900344742,49.94475514391691 L 106.18310871761274,50.011186589258905 L 106.18310887705562,50.011187712874715 L 106.19158980793958,50.11168952058102 L 106.19935675957386,50.204388307720166 L 106.1993567900187,50.20438944171958 L 106.19640137268377,50.30317037743269 L 106.19347290078623,50.398394397252666 L 106.19347280185048,50.39839552599675 L 106.1799477252979,50.491596272695496 L 106.16553229800888,50.590331753755834 L 106.16553207146586,50.59033286232645 L 106.14136858294654,50.681833924553096 L 106.13787060412501,50.69507989181317 L 106.11595863884303,50.7777456215451 L 106.11595828780736,50.77774669637976 L 106.10862694440031,50.79652375087146 L 106.08012943412749,50.86951164320732 L 106.08012942948764,50.869511655068585 L 106.04515407775602,50.95875494642947 L 106.04515360671091,50.95875597342113 L 106.00492444927241,51.034806819181256 L 106.00492444429788,51.03480682857322 L 106.00334822962027,51.037778922680985 L 105.95441800507763,51.13004124844166 L 105.95441742033648,51.1300422148634 L 105.94047435123628,51.15039486410686 L 105.8969971736036,51.213858348372305 L 105.89699716663303,51.21385835853379 L 105.84472760018475,51.28995477678012 L 105.8447269107371,51.28995566833669 L 105.78381648943467,51.36015986460615 L 105.78381647922768,51.36015987635205 L 105.71725796207649,51.436633229491264 L 105.71725717523412,51.43663403676086 L 105.66047953685712,51.48866656991326 L 105.66047952563389,51.488666580182844 L 105.60898783620715,51.53571101081033 L 105.57405183246905,51.56762964510949 L 105.57405096032613,51.56763035616945 L 105.50384495875511,51.61857261988657 L 105.50384494800107,51.61857262767893 L 105.49523348069098,51.62480376411035 L 105.41727165442475,51.68121584330832 L 105.41727070646739,51.681216450986646 L 105.33031027593425,51.730284145924074 L 105.33031026068207,51.73028415451258 L 105.24811895318919,51.77647137077009 L 105.2481179423671,51.77647186612407 L 105.2396029021918,51.78006537598964 L 105.14672898961089,51.81925994398265 L 105.14672897530016,51.81925995000896 L 105.06970674592979,51.85162399727509 L 105.06970568721094,51.851624373664954 L 104.97536987842663,51.879300129964584 L 104.97536985598668,51.87930013651942 L 104.88275776919967,51.90623521653804 L 104.88275667842527,51.90623546851574 L 104.79908213112392,51.92068676569019 L 104.79908211387689,51.92068676865336 L 104.69193020396345,51.93899975556974 L 104.69192909215046,51.9389998820718 L 104.59531844377834,51.94454311599479 L 104.59531842282006,51.94454311717525 L 104.57668247226219,51.94557314924293 L 104.49821867460996,51.94990994051542 L 104.49821754993403,51.94990993933625 L 104.48556560467311,51.94918403665666 L 104.39218572757176,51.943826385986384 L 104.3921857076739,51.94382638482485 L 104.30487547314638,51.938642361135294 L 104.30487436389573,51.93864223281891 L 104.2540523591641,51.92986449526674 L 104.2016714171823,51.92081750540714 L 104.2016713927208,51.920817501150985 L 104.11342506355768,51.90535027001984 L 104.11342397487081,51.90535001575486 L 104.02231511530071,51.87862096528407 L 104.02231509184875,51.87862095837271 L 103.92723579687235,51.85047443155194 L 103.92723474729473,51.850474056047126 L 103.83957866325719,51.813481511528025 L 103.83957864096531,51.81348150208862 L 103.8168064314152,51.80380618216872 L 103.7487259284005,51.77488054605399 L 103.74872492478646,51.7748800516459 L 103.67197794927252,51.73157728659983 L 103.65801295678212,51.72369785181256 L 103.65801293535976,51.7236978396907 L 103.58006583901594,51.67946464156663 L 103.58006490137153,51.67946403798712 L 103.50282626128607,51.62341608838594 L 103.50282623660982,51.623416070422145 L 103.42272232188675,51.56491487566964 L 103.42272146338387,51.56491417243959 L 103.35930695701754,51.50679943749869 L 103.35930693710013,51.506799419196234 L 103.32006120032999,51.47063778555088 L 103.28004849464195,51.433769454788596 L 103.28004771770472,51.433768654299975 L 103.22079080339884,51.365474358129184 L 103.22079078431481,51.36547433606971 L 103.15310915409783,51.287009254780855 L 103.15310847638548,51.287008374630105 L 103.09814504532142,51.206772861270316 L 103.09814502959098,51.20677283823823 L 103.04390941813267,51.12712422861966 L 103.04390884433087,51.1271232761058 L 103.00150713204997,51.04696534375114 L 102.99787269956875,51.04009466383503 L 102.99787268436975,51.04009463498855 L 102.95334993609082,50.955258917911024 L 102.95334947560485,50.95525790790458 L 102.91716825450244,50.86259047678093 L 102.91716824351282,50.862590448507774 L 102.88314770117576,50.77467069399749 L 102.88314735876723,50.774669638506545 L 102.85799412495128,50.67942065942162 L 102.85799411625344,50.67942062625484 L 102.8338601318584,50.586745223128936 L 102.83385991276802,50.5867441391705 L 102.81997954389583,50.49109508769836 L 102.81997953915715,50.491095054656356 L 102.81678035575102,50.468519651125135 L 102.80634193375393,50.3948597326714 L 102.80634183930403,50.39485862863487 L 102.8036672868924,50.30546523342439 L 102.80343682084073,50.29776220889206 L 102.80343681985444,50.29776217387493 L 102.8008792922751,50.20093387525375 L 102.80087932420452,50.200932770345716 L 102.80904074827464,50.10421722299282 L 102.8090407514389,50.10421718630162 L 102.81755858503901,50.007529089486056 L 102.81755874253324,50.00752799650379 L 102.83615856191297,49.91498943826394 L 102.83615856920515,49.91498940232478 L 102.85613351162525,49.81746192200107 L 102.85613379263476,49.81746085392668 L 102.88647312519579,49.72356190093767 L 102.88647313671963,49.72356186549776 L 102.91605328371338,49.63316541477076 L 102.91605368371773,49.63316438768652 L 102.95582959646015,49.54563317677799 L 102.95582961390845,49.545633138594134 L 102.99687137962685,49.456313763738166 L 102.99687189405454,49.456312789532504 L 103.04736887086337,49.37225149174833 L 103.04736888933752,49.372251461119006 L 103.0966724829422,49.2908378972236 L 103.09667310537574,49.290836986815485 L 103.16153755582859,49.20636781033276 L 103.16153758220022,49.20636777614359 L 103.21527489727201,49.137010833221936 L 103.21527561509419,49.13701000483851 L 103.22811499356631,49.12373845856693 L 103.2832488477551,49.066748823236395 L 103.28324887863548,49.0667487914578 L 103.35101211535257,48.99732293396363 L 103.35101284080443,48.99732226082116 L 103.3689777799415,48.98223625219484 L 103.36897789595776,48.98223615625033 L 103.4880775029346,48.88524211241334 L 103.48807811655682,48.88524165070889 L 103.5384791825414,48.85026646412508 L 103.53847949440122,48.8502662562624 L 103.63882209517303,48.786067966705524 L 103.63882257934935,48.786067675869695 L 103.69661929520292,48.75353520264075 L 103.69661981045547,48.75353493205038 L 103.80380198145993,48.70116790127083 L 103.80380230639307,48.701167749669544 L 103.85987566698041,48.67622022840562 L 103.8598763888662,48.676219940293485 L 103.99770254628888,48.62733131247708 L 103.99770269501157,48.627331261037135 L 104.02895035210814,48.6167979187134 L 104.02895130500822,48.61679764924072 L 104.07941210987427,48.60519198978016 L 104.20298546711498,48.57677091511952 L 104.20298633917825,48.57677075488532 L 104.23232111925688,48.57271558550165 L 104.25180380240336,48.570022346282 L 104.25180405394055,48.57002231475391 L 104.38131280761898,48.55545430876327 L 104.3813134666251,48.55545425662206 L 104.44162983752445,48.552683960067846 L 104.44163031677446,48.55268394955783 L 104.5638068043463,48.552933671555934 L 104.56380724271752,48.55293368206595 L 104.62355376396971,48.555677805750506 L 104.62355446390146,48.55567786258067 L 104.75729027051116,48.57127949130586 L 104.75729048112272,48.57127951814498 L 104.8015410335173,48.577396607988504 L 104.80154195175238,48.577396778957215 L 104.93888315476771,48.60967060305982 L 104.97522795044236,48.61821127051354 L 104.97522885688184,48.61821152915437 L 104.99542312973207,48.625018176240104 L 105.01577106182256,48.631876615446686 L 105.015771247513,48.63187668007492 L 105.14189713686636,48.67716884883657 L 105.14376720771345,48.67784039664358 L 105.14376789274309,48.67784067158593 L 105.2021983123233,48.70383551127177 L 105.20219867815533,48.70383568296224 L 105.26265152911357,48.73371224101211 L 105.30787820797606,48.75606383361724 L 105.30787868271146,48.756064084312406 L 105.32423775502012,48.765272744379615 L 105.36499568247254,48.788215726223065 L 105.36499620220283,48.78821603992898 L 105.45244819542613,48.84469238329731 L 105.46738627657763,48.85433936982421 L 105.46738655290478,48.85433955485838 L 105.51532544856757,48.887608101772145 L 105.51532609409382,48.887608589597356 L 105.57683822214727,48.93812981658515 L 105.65216783165062,48.99999963674994 L 105.6521686718692,49.00000041133802 L 105.78703268467748,49.13940388715591 L 105.78703342830117,49.139404748986145 L 105.90516627815909,49.29321243777042 L 105.90516691998431,49.29321338012858 L 105.96184056612795,49.38757127584799 z M 103.67709302170276,11.117401523352092 L 103.67709403630722,11.117400786480468 L 103.82554573490934,11.023208954280767 L 103.82554683224262,11.023208350891172 L 103.98461856930003,10.94830349168592 L 103.98461974125462,10.948303027635244 L 104.15182435536993,10.894012644625365 L 104.15182556645817,10.894012333583586 L 104.32452330507164,10.861007809054437 L 104.32452455648615,10.861007650887233 L 104.49999937425845,10.8500061427469 L 104.50000062574142,10.850006142748597 L 104.67546781413304,10.861007650886373 L 104.67546906552046,10.861007809051879 L 104.84816680408123,10.894012333570961 L 104.84816801529695,10.894012644654133 L 105.01536500019938,10.948303027705268 L 105.01536617169205,10.948303491557065 L 105.17445316747406,11.023208350783413 L 105.1744542653381,11.023208954455056 L 105.32289833463904,11.117400786679408 L 105.32289934862088,11.117401523074006 L 105.45837353652752,11.229400232229244 L 105.45837445581739,11.229401095378769 L 105.57871966315845,11.357604522801056 L 105.57872046178441,11.357605488267524 L 105.68205224195532,11.499801126101644 L 105.6820529157657,11.499802187832392 L 105.7667538473673,11.653899595190458 L 105.76675438193625,11.653900731407287 L 105.83148170207718,11.817412745228633 L 105.83148209000072,11.8174139393283 L 105.87519820797142,11.987700807235154 L 105.87519844308908,11.987702039573689 L 105.8972472354862,12.16210875036893 L 105.89724731445312,12.162110004602772 L 105.89724731445312,12.337905254131643 L 105.89724723547255,12.3379065084735 L 105.87519844307543,12.51229796058883 L 105.8751982080251,12.512299192610332 L 105.83148209005435,12.682601319197236 L 105.83148170195959,12.682602513802886 L 105.7667543818187,12.846099268944249 L 105.76675384756862,12.846100404497838 L 105.6820529158437,13.000213070760088 L 105.68205224183201,13.000214132857112 L 105.57872046195968,13.142409770280358 L 105.5787196629272,13.142410736179858 L 105.45837445564068,13.270598904864283 L 105.45837353675732,13.270599767580775 L 105.3228993483374,13.38259847716035 L 105.32289833497431,13.382599213162306 L 105.17445426562402,13.476806304098082 L 105.17445316714122,13.476806908162366 L 105.01536617169205,13.551711767231998 L 105.01536500019938,13.551712231083794 L 104.84816801529695,13.60600261413493 L 104.84816680408123,13.606002925218101 L 104.67546906552046,13.639007449737184 L 104.67546781413304,13.63900760790269 L 104.50000062574142,13.650009116040465 L 104.49999937425845,13.650009116042163 L 104.32452455648615,13.63900760790183 L 104.32452330507164,13.639007449734626 L 104.15182556645817,13.606002925205477 L 104.15182435536993,13.606002614163698 L 104.11002337495003,13.592430074618711 L 103.98461974125462,13.551712231153818 L 103.98461856930003,13.551711767103143 L 103.97007186323434,13.544861908103004 L 103.82554683257543,13.476806908054597 L 103.8255457346234,13.476806304272383 L 103.67709403597198,13.382599213361305 L 103.67709302198625,13.3825984768823 L 103.54163409227861,13.270599767329603 L 103.54163317403808,13.270598905196199 L 103.4212803370753,13.142410736153503 L 103.42127953803272,13.14240977030741 L 103.31794012900718,13.000214133141077 L 103.31793945460596,13.000213070426813 L 103.23324615231851,12.846100404342105 L 103.23324561825156,12.846099269121723 L 103.16851829804041,12.682602513802886 L 103.16851790994565,12.682601319197236 L 103.12480179202865,12.51229919281968 L 103.12480155692431,12.512297960370976 L 103.10276039386798,12.337906508262465 L 103.1027603149414,12.337905254347811 L 103.1027603149414,12.162110004386694 L 103.10276039385433,12.16210875058002 L 103.12480155691067,11.987702039791454 L 103.12480179208232,11.987700807025751 L 103.16851790999928,11.8174139393283 L 103.16851829792282,11.817412745228633 L 103.23324561813399,11.65390073122983 L 103.2332461525198,11.65389959534622 L 103.31793945468395,11.499802188165642 L 103.31794012888389,11.499801125817644 L 103.421279538208,11.35760548824047 L 103.42128033684405,11.3576045228274 L 103.54163317386133,11.229401095046837 L 103.54163409250839,11.22940023248041 L 103.67709302170276,11.117401523352092 z M 45.218090634097024,43.90251177640741 L 45.21808950647788,43.90251134883475 L 45.12054952687816,43.858628607833744 L 45.052918032254254,43.828201542190804 L 45.05291696263951,43.828200980982096 L 44.98155775111435,43.785073234468875 L 44.930677198523014,43.75432228406301 L 44.89790014590024,43.73451264229773 L 44.897899151046815,43.73451195566633 L 44.78124197490053,43.64311380315897 L 44.75531816419323,43.62280310747037 L 44.75531726023283,43.62280230659407 L 44.674151864785706,43.541632076708005 L 44.62722821088552,43.49470562790318 L 44.62722741019008,43.49470472405723 L 44.531579551688566,43.372613583817284 L 44.51551856143667,43.35211229247676 L 44.515517875607074,43.352111298859 L 44.46322114659761,43.265602293724754 L 44.42181809264527,43.197113555044965 L 44.42181753118636,43.19711248519315 L 44.395574538056515,43.13879292718477 L 44.34747720717093,43.03190667892979 L 44.34747677943225,43.031905551084925 L 44.293586911120364,42.85900936708493 L 44.29358662184673,42.859008193526 L 44.260936846030546,42.68080198637226 L 44.260936700550545,42.68080078803405 L 44.25474381532932,42.57842269666849 L 44.25000001824535,42.50000030162424 L 44.25,42.49999969782454 L 44.25,18.00000030217546 L 44.25000001824535,17.99999969837576 L 44.26093670054595,17.81919921204197 L 44.260936846053305,17.819198013554452 L 44.27749832717853,17.728811297078057 L 44.29358662185142,17.64100706518647 L 44.2935869110977,17.641005891776857 L 44.34747677943224,17.468109707704148 L 44.347477207170925,17.468108579859273 L 44.421817531186356,17.30290277359592 L 44.42181809264526,17.30290170374411 L 44.515517875607095,17.14790395993003 L 44.51551856143669,17.147902966312277 L 44.627227410190066,17.00531053473185 L 44.627228210885505,17.005309630885897 L 44.75531726023283,16.877212952194995 L 44.75531816419323,16.877212151318695 L 44.8978991513316,16.76550330289961 L 44.89790014556802,16.765502616641136 L 45.052916962022515,16.67179901944183 L 45.052918032954956,16.67179845754499 L 45.21808950681048,16.597503909753815 L 45.21809063372893,16.597503482496364 L 45.28636598850354,16.57622645123452 L 45.39102878163942,16.543609798727104 L 45.391029951598064,16.54360951017348 L 45.4423021981009,16.53419885781662 L 45.531553309955754,16.517817457674877 L 45.5691865672528,16.51091014376463 L 45.569187770231984,16.510909997618864 L 45.749999699127166,16.500000018154314 L 45.750000301420016,16.5 L 94.99999969856094,16.5 L 95.00000030089177,16.500000018156605 L 95.18080078575257,16.510909997621155 L 95.18080198858159,16.51091014374404 L 95.35897004831344,16.543609510164234 L 95.35897121844408,16.54360979875709 L 95.53190555164635,16.59750348251501 L 95.53190667842618,16.597503909718377 L 95.57068924162557,16.614948002117252 L 95.69708196695353,16.67179845750957 L 95.697083038058,16.671799019498213 L 95.85209603984062,16.765502616697454 L 95.85209703388158,16.765503302819464 L 95.91506088325315,16.81483267745152 L 95.99468183563305,16.877212151192563 L 95.99468273990625,16.877212952359567 L 96.0952362967853,16.97777848845673 L 96.12276415983838,17.00530963097885 L 96.12276496032324,17.005310534614203 L 96.23447380933608,17.14790296652583 L 96.23447449488594,17.147903959680864 L 96.28641718810537,17.233816827501922 L 96.32818572178392,17.302901703363943 L 96.32818628368015,17.302902774028706 L 96.4025189781906,17.468108579933393 L 96.40251940583154,17.468109707620027 L 96.42611809414598,17.543827316933612 L 96.45640545958037,17.641005891968874 L 96.45640574872947,17.64100706498277 L 96.48905933923739,17.8191980135582 L 96.48905948476938,17.819199212039614 L 96.49162236946367,17.861552936924827 L 96.49998864153282,17.99981229222102 L 96.49999998174195,17.999999698271093 L 96.5,18.00000030228063 L 96.5,42.49999969771937 L 96.49999998174195,42.5000003017289 L 96.48905948476478,42.680800788036365 L 96.48905933926015,42.68080198636846 L 96.4721886501303,42.7728733781196 L 96.45640574873416,42.85900819372978 L 96.45640545955769,42.85900936689299 L 96.4378919130861,42.91841103617497 L 96.40251940583154,43.031905551169025 L 96.4025189781906,43.03190667885566 L 96.34881150890759,43.1512725353531 L 96.32818628368015,43.19711248476034 L 96.32818572178392,43.197113555425105 L 96.23447449488594,43.352111299108195 L 96.23447380933608,43.35211229226323 L 96.2168534808543,43.374604024220915 L 96.12276496032321,43.494704724174895 L 96.12276415983835,43.49470562781024 L 96.07292592192697,43.54454980308617 L 95.99468273990625,43.6228023064295 L 95.99468183563305,43.6228031075965 L 95.97124791970916,43.64116253811485 L 95.85209703416645,43.73451195574642 L 95.8520960395085,43.73451264224138 L 95.69708303744092,43.82820098092579 L 95.69708196765413,43.828201542226296 L 95.53190667875879,43.9025113488702 L 95.53190555127827,43.902511776388764 L 95.35897121844405,43.95640546003198 L 95.35897004831341,43.95640574862483 L 95.18080198899669,43.98910511496884 L 95.1808007853283,43.98910526114234 L 95.00000030047326,43.99999998189401 L 94.9999996989818,44.0 L 45.75000030099921,44.0 L 45.74999969954568,43.999999981896295 L 45.569187770656235,43.98910526114463 L 45.56918656683773,43.98910511494825 L 45.39102995159811,43.956405748615595 L 45.39102878163946,43.95640546006197 L 45.218090634097024,43.90251177640741 z M 35.80681624930156,65.11787440837308 L 35.8068159689675,65.11787387418264 L 35.62937940467232,64.75344875786826 L 35.62937915687756,64.75344820730436 L 35.48122631347899,64.395800204058 L 35.474266167888516,64.37899808190068 L 35.47426595367041,64.37899751709497 L 35.342044928982034,63.99586515404712 L 35.34204474911883,63.99586457684143 L 35.23320015431992,63.60537748813727 L 35.23320000986247,63.60537690203178 L 35.14814001706062,63.20915251722852 L 35.148139908133345,63.20915192283834 L 35.087154433881835,62.80842620199189 L 35.08715436108644,62.80842560244953 L 35.05046847217229,62.404724422039145 L 35.05046843569772,62.404723819046076 L 35.038227090424385,61.99958831471182 L 35.038227090424385,61.9995877106788 L 35.050468435697205,61.59445220636159 L 35.05046847217486,61.59445160333459 L 35.08715436108696,61.190765681713096 L 35.08715443387927,61.19076508220466 L 35.09756124801875,61.12238358400462 L 35.148139908133345,60.79003936134135 L 35.14814001706062,60.79003876695117 L 35.23320000986247,60.39381438214791 L 35.23320015431992,60.393813796042416 L 35.34204474913533,60.00332670727903 L 35.34204492895848,60.00332613018943 L 35.47426595363037,59.62017850842306 L 35.47426616794368,59.62017794336816 L 35.62937915690108,59.24574307680718 L 35.629379404640694,59.24574252637638 L 35.80681596896753,58.881317409996996 L 35.80681624930159,58.881316875806554 L 36.00592789078921,58.528213764789236 L 36.00592820400496,58.52821324665011 L 36.22600539031226,58.18786646438676 L 36.22600573307316,58.18786596783347 L 36.46622449095385,57.86138940405177 L 36.466224864294645,57.86138892756555 L 36.72571544463522,57.55009483550815 L 36.725715843313964,57.5500943854666 L 37.003543645637244,57.254852516089386 L 37.003544074919844,57.254852086791395 L 37.29867150286791,56.977112023016055 L 37.29867195400382,56.97711162339708 L 37.42124196950373,56.87496143430142 L 37.6100347105059,56.7176210430597 L 37.6100351860045,56.717620670527 L 37.93651937988361,56.477386653354436 L 37.936519876052415,56.47738631082842 L 38.276889546593324,56.257263348139375 L 38.27689006495294,56.257263034754686 L 38.29202060310658,56.24873033264753 L 38.62993595520466,56.058166652254414 L 38.62993648979155,56.058166371702804 L 38.99435397635313,55.880737436970755 L 38.99435452723256,55.88073718905098 L 39.36883135543505,55.7256318294626 L 39.36883192007637,55.725631615328425 L 39.75198335642915,55.5934144053844 L 39.75198393417582,55.593414225385644 L 40.14241380314225,55.48461922140004 L 40.14241438722514,55.48461907742618 L 40.53871125119726,55.39949042016972 L 40.53871184782368,55.39949031082383 L 40.939429939378854,55.3385467981657 L 40.93943053643545,55.338546725656585 L 41.34308594055802,55.301803616367735 L 41.34308654590496,55.30180357973085 L 41.74822967930276,55.28959656669136 L 41.74823028163474,55.28959656669144 L 42.15336960033244,55.30180357973068 L 42.15337020568505,55.301803616368254 L 42.557021795118885,55.33854672565736 L 42.557022392152994,55.33854679816358 L 42.95774429839976,55.399490310821704 L 42.957744895059484,55.399490420173876 L 43.354037944352186,55.48461907743295 L 43.354038528367084,55.48461922138909 L 43.74447602673694,55.593414225380336 L 43.74447660453228,55.59341440539266 L 44.12762804082706,55.725631615316665 L 44.12762860553492,55.7256318294784 L 44.50209780434454,55.88073718906276 L 44.50209835515742,55.88073743695497 L 44.86651584175142,56.058166371702804 L 44.86651637633831,56.058166652254414 L 45.219562266612265,56.25726303476723 L 45.21956278492897,56.25726334812416 L 45.55993627014212,56.4773863108007 L 45.55993676639875,56.477386653387526 L 45.886417145561914,56.71762067054215 L 45.886417621015596,56.7176210430418 L 45.98454208745532,56.79939824410396 L 46.15748645955528,56.94353056097599 L 46.197780377563966,56.97711162341776 L 46.197780828652895,56.97711202299253 L 46.49291207127052,57.25485208674715 L 46.49291250064706,57.25485251613925 L 46.770736488254016,57.55009438549018 L 46.7707368868858,57.55009483548183 L 47.03022746724833,57.86138892756556 L 47.03022784058913,57.86138940405178 L 47.27044659846981,58.18786596783347 L 47.27044694123071,58.18786646438676 L 47.31438841085404,58.25582143075634 L 47.3605509911942,58.327211318746855 L 47.49052412753801,58.52821324665011 L 47.49052444075376,58.528213764789236 L 47.68963608226222,58.88131687584352 L 47.689636362559234,58.88131740995788 L 47.86707674155959,59.24574252630018 L 47.86707698936954,59.245743076887386 L 47.97181084790619,59.49857150261532 L 48.0221861636184,59.620177943407434 L 48.02218637789843,59.620178508382 L 48.15440740258448,60.00332613018941 L 48.15440758240763,60.00332670727901 L 48.26325217723539,60.39381379608668 L 48.26325232167352,60.393814382102185 L 48.33524912055709,60.72917307560584 L 48.34831612916725,60.790038766906825 L 48.34831623811384,60.790039361386995 L 48.409301712353916,61.19076508215833 L 48.4093017851547,61.1907656817601 L 48.445983859379425,61.594451603427856 L 48.445983895845764,61.59445220626749 L 48.45822905581016,61.99958771058478 L 48.45822905581016,61.99958831480585 L 48.44598389584525,62.40472381914016 L 48.445983859382,62.404724421945865 L 48.40930178515522,62.80842560240248 L 48.40930171235135,62.80842620203818 L 48.34831623811384,63.20915192279269 L 48.34831612916725,63.20915251727286 L 48.26325232167352,63.6053769020775 L 48.26325217723539,63.605377488093005 L 48.15440758242414,63.99586457684143 L 48.154407402560935,63.99586515404712 L 48.02218637785837,64.37899751713609 L 48.02218616367354,64.37899808186145 L 47.89943625068898,64.67532949177674 L 47.86707698939309,64.75344820722407 L 47.86707674152801,64.75344875794438 L 47.689636362559234,65.11787387422181 L 47.68963608226222,65.11787440833618 L 47.49052444080401,65.47097751930134 L 47.49052412747725,65.47097803761214 L 47.270446941119694,65.8113095611869 L 47.27044659860202,65.81131005738882 L 47.030227840649836,66.13780188003399 L 47.03022746717682,66.13780235669991 L 46.77073688696841,66.44909644859877 L 46.770736488159855,66.44909689877825 L 46.49291250047031,66.74432350945062 L 46.49291207147021,66.74432393846698 L 46.19778082874712,67.02207926108713 L 46.19778037745852,67.0220796608498 L 45.886417621015674,67.28157024113781 L 45.88641714556199,67.28157061363747 L 45.559936766398835,67.5218046307921 L 45.5599362701422,67.52180497337893 L 45.21956278492876,67.74192793605566 L 45.21956226661206,67.74192824941258 L 44.8665163763384,67.94102463192522 L 44.866515841751514,67.94102491247683 L 44.50209835515759,68.11845384722464 L 44.50209780434471,68.11845409511686 L 44.127628605534824,68.27355945470133 L 44.12762804082696,68.27355966886306 L 43.74447660470395,68.40577687872779 L 43.744476026559255,68.40577705883746 L 43.35403852801776,68.51455680411019 L 43.35403794471206,68.51455694789168 L 42.95774489523724,68.5997008639562 L 42.95774429821767,68.59970097338568 L 42.55702239215288,68.66064448601612 L 42.55702179511877,68.66064455852234 L 42.15337020568505,68.69738766781143 L 42.15336960033244,68.697387704449 L 41.74823028163474,68.70959471748824 L 41.74822967930276,68.70959471748833 L 41.34308654590484,68.69738770444883 L 41.3430859405579,68.69738766781194 L 40.939430536435566,68.66064455852312 L 40.93942993937897,68.66064448601401 L 40.53871184800571,68.59970097338355 L 40.538711251019464,68.59970086396035 L 40.1424143868653,68.51455694789846 L 40.1424138034916,68.51455680409924 L 39.75198393435368,68.4057770588322 L 39.751983356257654,68.4057768787361 L 39.36883192007637,68.27355966885126 L 39.36883135543505,68.27355945471709 L 38.99435452723256,68.1184540951287 L 38.99435397635313,68.11845384720893 L 38.629936489791454,67.94102491247683 L 38.629935955204566,67.94102463192522 L 38.2768900649531,67.74192824942509 L 38.27688954659349,67.74192793604041 L 38.15758475151832,67.66477145816381 L 37.93651987605228,67.52180497335118 L 37.93651937988348,67.52180463082516 L 37.61003518600442,67.28157061365262 L 37.610034710505815,67.28157024111991 L 37.29867195410925,67.02207966087047 L 37.29867150277368,67.0220792610636 L 37.003544074720224,66.74432393842281 L 37.00354364581406,66.74432350950057 L 36.725715843408125,66.44909689880183 L 36.725715444552606,66.44909644857243 L 36.46622486436615,66.13780235669991 L 36.46622449089313,66.13780188003399 L 36.32153456956939,65.94114747829582 L 36.22600573294095,65.81131005738882 L 36.226005390423275,65.8113095611869 L 36.00592820406569,65.4709780376121 L 36.00592789073893,65.4709775193013 L 35.80681624930156,65.11787440837308 z M 36.43667577767601,51.94637899318786 L 36.392185727571345,51.94382638598636 L 36.39218570767349,51.94382638482483 L 36.3048753810027,51.938642355664285 L 36.304874271818036,51.938642227359296 L 36.20195292810799,51.92086684677443 L 36.20195290358051,51.920866842506875 L 36.11340630317799,51.90534698182494 L 36.11340521438485,51.90534672752879 L 36.02253465100309,51.87868649418206 L 36.02253462771088,51.87868648731771 L 35.927244666164185,51.85047817455604 L 35.92724361653309,51.850477799035396 L 35.83928428253664,51.8133572772318 L 35.83928426017402,51.81335726776234 L 35.74872622976602,51.77488069285903 L 35.74872522613854,51.7748801984335 L 35.71450547964973,51.75557203550578 L 35.65834843811348,51.72388596477831 L 35.65834841660658,51.72388595260819 L 35.58005597059019,51.67945476832878 L 35.580055033301505,51.67945416498072 L 35.503733046087035,51.624074073349085 L 35.50373302131735,51.624074055317934 L 35.44015492436849,51.577643064392724 L 35.42268841421771,51.564887297655034 L 35.422687555621245,51.56488659435664 L 35.36011035849813,51.507539191805776 L 35.36011033877664,51.507539173683824 L 35.280044569088815,51.43376926903106 L 35.28004379185832,51.43376846824973 L 35.22077232505523,51.36545535006283 L 35.22077230597137,51.36545532800289 L 35.16435490014585,51.30004718844116 L 35.153109081080615,51.28700922449826 L 35.15310840355716,51.287008344594064 L 35.09847034470177,51.207250585087074 L 35.098470328879614,51.20725056192111 L 35.04389274565776,51.12709974397921 L 35.04389217169334,51.127098791157906 L 35.041024266205355,51.12167672899406 L 34.9978533379553,51.04005777131791 L 34.99785332291893,51.04005774277888 L 34.9533646271898,50.95528691101489 L 34.953364166770456,50.955285901179074 L 34.92993653480358,50.895286237366854 L 34.916969462165774,50.862076735015215 L 34.91696945110953,50.86207670657143 L 34.88314738968979,50.77466988902002 L 34.88314704737839,50.77466883389683 L 34.87214235622721,50.733003252363716 L 34.8580059591255,50.679480513930265 L 34.85800595042636,50.679480480763665 L 34.833852618672466,50.58674524130951 L 34.83385239943035,50.586744156597774 L 34.820044358256,50.49156743650536 L 34.8200443534913,50.491567403270444 L 34.80712366773913,50.4003527598194 L 34.8063409593093,50.39482716530202 L 34.806340864941326,50.39482606184375 L 34.80346937510953,50.298850292492226 L 34.803469374123246,50.298850257475095 L 34.800882197597886,50.200899446227645 L 34.800882229527296,50.20089834131961 L 34.80908063730757,50.10374452489267 L 34.8090806404203,50.10374448878669 L 34.817545328415754,50.00759504469213 L 34.81754548596152,50.00759395112464 L 34.836464079072556,49.91346941718799 L 34.836464086403375,49.91346938106026 L 34.85023444225003,49.8462423231425 L 34.856122809153405,49.81749523866171 L 34.85612309018186,49.81749417059775 L 34.88128159812721,49.73963463305212 L 34.88693374101569,49.72214260878762 L 34.88693375248195,49.72214257352585 L 34.91602999538278,49.63322492587921 L 34.91603039531307,49.633223898957986 L 34.92430605141738,49.61501155418116 L 34.95633764863259,49.544519198664815 L 34.95633766615496,49.54451916031795 L 34.996855841555316,49.45633927736904 L 34.99685635572245,49.45633830359714 L 35.047323722795156,49.37231666545187 L 35.047323741442824,49.37231663453251 L 35.09667879145034,49.29081501150823 L 35.09667941425599,49.29081410058519 L 35.16115362238404,49.206861248276994 L 35.16115364875613,49.20686121409052 L 35.21529266895374,49.136992531520924 L 35.21529338658868,49.13699170340441 L 35.28325315197406,49.066746429292024 L 35.28325318265791,49.06674639771566 L 35.35099558010066,48.997339937891645 L 35.3509963055304,48.997339264749584 L 35.36908166668055,48.98215164742734 L 35.369081782817155,48.98215155138177 L 35.48807400277102,48.88524496292669 L 35.48807461650616,48.88524450114389 L 35.50274156772241,48.87506685325628 L 35.5385155337898,48.85024268736051 L 35.53851584544749,48.85024247963327 L 35.63879293537854,48.78608460654299 L 35.63879341933723,48.78608431582281 L 35.69660289381102,48.75354198046535 L 35.696603409525466,48.7535417096265 L 35.76987114114788,48.717746151048686 L 35.80388595049746,48.7011279335384 L 35.80388627536414,48.701127781973454 L 35.83610175539386,48.68679521155215 L 35.85983894335779,48.676234607836705 L 35.85983966515498,48.67623431976399 L 35.99768577887734,48.62733861320341 L 35.99768592781662,48.62733856169046 L 36.02896498700698,48.616795430113676 L 36.02896593969047,48.616795160714005 L 36.19598858650328,48.57838102986023 L 36.1959894702266,48.57838086802116 L 36.19599036490867,48.57838078615059 L 36.25939925538428,48.57544172758065 L 36.641250944992315,48.557742561543066 L 36.641251757031505,48.55774255691118 L 36.64125256676911,48.557742618182026 L 36.75728336141977,48.57127904678688 L 36.75728357210716,48.571279073636966 L 36.765328748795056,48.57239130098983 L 36.80154207528296,48.57739771089485 L 36.801542993375826,48.577397881839666 L 36.876050127114326,48.59490596777317 L 36.97524011682636,48.61821416359931 L 36.975241023381805,48.61821442227476 L 37.01573185974322,48.63186253786591 L 37.01573204536147,48.631862602469816 L 37.14376720771347,48.67784039664359 L 37.1437678927431,48.67784067158594 L 37.2021901656221,48.703831886923474 L 37.20219053153219,48.70383205865253 L 37.30789078716383,48.75607159746563 L 37.30789126192346,48.756071848179786 L 37.36498956627756,48.78821384887339 L 37.364990085816,48.78821416246389 L 37.46739698405655,48.85434681000237 L 37.46739726024742,48.85434699493765 L 37.51531019806431,48.88759557623626 L 37.51531084381642,48.8875960642182 L 37.65216783170542,48.99999963679495 L 37.65216867182573,49.00000041128145 L 37.787036499156414,49.13940388694183 L 37.78703724316344,49.13940474924481 L 37.90515864903179,49.29321243807452 L 37.90515929039826,49.293213379772325 L 37.96275289693633,49.389095620874755 L 38.00515355693589,49.45977256411822 L 38.005154085955844,49.45977357182947 L 38.03888603202064,49.534011436583285 L 38.08529040089377,49.63619501711605 L 38.085290811362185,49.636196077255875 L 38.12172419510014,49.748948646494945 L 38.14490512690365,49.82079603105096 L 38.144905413873744,49.82079713086887 L 38.16266912977038,49.90916705106065 L 38.18311145843404,50.01121921230735 L 38.18311161781773,50.01122033574068 L 38.19105361544375,50.1053576231572 L 38.19310451841716,50.129840971558956 L 38.19935194471421,50.20442173757278 L 38.19935197514271,50.20442287137701 L 38.196466816739495,50.30085549474369 L 38.193469060891125,50.39839475999834 L 38.19346896200525,50.39839588855343 L 38.17995743942544,50.491528751235634 L 38.17659253439039,50.514582242138395 L 38.165536072377904,50.59033179330853 L 38.16553584568159,50.59033290263171 L 38.13840552339241,50.69305279179809 L 38.11594317073718,50.77777543186327 L 38.11594281978095,50.777776506317636 L 38.09453065002916,50.83261444249551 L 38.08010972471519,50.86954735453384 L 38.080109720208746,50.86954736605409 L 38.0451609901676,50.95872753330016 L 38.045160519218335,50.95872856015476 L 38.003467815985516,51.03755278558845 L 38.003467811011035,51.037552794981124 L 37.9544345665704,51.13001712977061 L 37.954433981850016,51.130018096231325 L 37.92860078724248,51.167729345164155 L 37.89780027903619,51.21269186915204 L 37.89780027179047,51.21269187971482 L 37.84469887674891,51.289996628510096 L 37.844698187198254,51.28999752015754 L 37.784517678058236,51.359356270323005 L 37.784517668143295,51.359356281732666 L 37.71727670850723,51.43661604974249 L 37.717275921567534,51.43661685712391 L 37.659232581560666,51.489809312807424 L 37.65923257033743,51.489809323077004 L 37.57407036891407,51.56761619485667 L 37.57406949677116,51.56761690591663 L 37.50368861054466,51.61868606790512 L 37.50368859960397,51.61868607583253 L 37.41725468910447,51.68122540200331 L 37.417253741249574,51.68122600959408 L 37.330755892626684,51.73003158898824 L 37.33075587745868,51.73003159752925 L 37.248115138491855,51.77647137077012 L 37.24811412766976,51.7764718661241 L 37.14573471870527,51.81967793545221 L 37.145734704534924,51.81967794141954 L 37.06972784510226,51.851616701025954 L 37.0697267863493,51.85161707744362 L 36.97516239178085,51.879361032489825 L 36.97516236918192,51.87936103909117 L 36.8827522550449,51.90623682771539 L 36.8827511643232,51.90623707967775 L 36.79944781699233,51.920624267499264 L 36.799447799745295,51.92062427046243 L 36.691928292775465,51.93900008220471 L 36.691927180951225,51.93900020870741 L 36.59536964345452,51.9445402861253 L 36.595369622507484,51.94454028730512 L 36.498218674609994,51.94990994051542 L 36.49821754993406,51.94990993933625 L 36.43667577767601,51.94637899318786 z M 37.71912040059371,13.434798761593187 L 37.71911960373148,13.434799581451083 L 37.57611889004299,13.566009135377225 L 37.576118007211846,13.566009857173002 L 37.419090732546245,13.680099151962107 L 37.41908977430157,13.680099767978293 L 37.25008060894559,13.775603965334174 L 37.25007957924739,13.775604471587357 L 37.07127814340632,13.851104514644334 L 37.0712770716241,13.851104896932865 L 36.88504083232254,13.905807333826505 L 36.88503971926762,13.905807592705836 L 36.69378718381065,13.938903711215982 L 36.6937860509494,13.93890384127604 L 36.500000572283234,13.950012174226353 L 36.499999427716716,13.950012174226996 L 36.3062101343758,13.938903841276685 L 36.3062090014703,13.93890371121027 L 36.11496028068812,13.905807592700123 L 36.11495916771936,13.905807333842116 L 35.92871911374295,13.851104896948467 L 35.928718041837165,13.851104514614585 L 35.74992042071558,13.775604471576493 L 35.749919391087815,13.775603965353051 L 35.58091022564797,13.680099767949777 L 35.58090926749675,13.680099152001493 L 35.57930690944266,13.678934975524344 L 35.42387817819562,13.566009857240939 L 35.4238772951731,13.566009135287418 L 35.280880396159354,13.434799581361242 L 35.2808795994923,13.434798761705437 L 35.15376700631937,13.288101628188292 L 35.15376630948118,13.288100724566796 L 35.04420884974067,13.12789964241978 L 35.0442082595096,13.127898663637838 L 34.95362880676291,12.956207780958398 L 34.95362833266202,12.956206742722644 L 34.88319799182986,12.775299605008062 L 34.88319763908362,12.775298519357035 L 34.83385863537863,12.58760126109973 L 34.833858408604094,12.587600141946988 L 34.806240163132884,12.395508378280079 L 34.80624006544027,12.395507241135824 L 34.800689713623164,12.201508140097564 L 34.800689746205144,12.201506998484854 L 34.81729884024327,12.008102986603191 L 34.817299002676315,12.008101856667631 L 34.855850106162826,11.817810619153173 L 34.85585039646274,11.817809514637947 L 34.915828527924866,11.633209773003703 L 34.91582894272819,11.633208707775259 L 34.9964597240268,11.456711334017204 L 34.99646025525486,11.456710327129668 L 35.09669846517344,11.290405764218749 L 35.09669911092594,11.290404819660251 L 35.21522868535509,11.136703943858903 L 35.215229432798125,11.136703081287608 L 35.35049779992376,10.99751322850475 L 35.350498643367786,10.99751245461407 L 35.50076631377723,10.874710442890349 L 35.50076723248665,10.874709775374221 L 35.66404675774507,10.769699407612297 L 35.66404775712072,10.769698843193236 L 35.83823724984918,10.684112800689334 L 35.8382383003957,10.684112356967267 L 35.874049926196506,10.671339944802183 L 36.02104896252625,10.618911934682867 L 36.02105005478462,10.618911613916708 L 36.21010915193225,10.574905525567097 L 36.210110280662434,10.574905330203554 L 36.40294971956908,10.552810733943321 L 36.40295085787284,10.552810668945312 L 36.59704914212716,10.552810668945312 L 36.59705028043092,10.552810733943321 L 36.78988971931536,10.57490533020101 L 36.78989084808894,10.574905525574653 L 36.978946130540464,10.618911613919302 L 36.97894722275544,10.61891193467536 L 37.16175788490705,10.68411235696727 L 37.16175893545357,10.684112800689338 L 37.335948428182014,10.769698843193236 L 37.335949427557665,10.769699407612297 L 37.49922895281608,10.874709775374223 L 37.49922987152551,10.87471044289035 L 37.57051067412827,10.932962666625835 L 37.64949754193495,10.99751245461407 L 37.649498385378976,10.99751322850475 L 37.78476675250461,11.136703081287608 L 37.78476749994764,11.136703943858903 L 37.903297074428345,11.29040481972709 L 37.90329772009399,11.290405764141488 L 38.00353974464705,11.456710326985512 L 38.00354027603627,11.456711334179793 L 38.08416724266009,11.633208707937884 L 38.08416765733135,11.633209772825916 L 38.14414960346828,11.817809514460249 L 38.14414989386418,11.81781061934197 L 38.18269718267588,12.008101856856333 L 38.182697345053946,12.008102986408089 L 38.199310253775295,12.201506998387956 L 38.19931028637403,12.201508140195742 L 38.19375993456252,12.395507241038256 L 38.19375983684222,12.395508378375094 L 38.166137776695756,12.587600142045188 L 38.16613754994891,12.587601261005346 L 38.13023512769614,12.724182580359393 L 38.116798546219115,12.775298519357035 L 38.116798193472874,12.775299605008062 L 38.04636785264072,12.956206742722626 L 38.046367378539834,12.95620778095838 L 37.96128643057681,13.11747639775854 L 37.95578792579313,13.127898663637838 L 37.955787335562064,13.12789964241978 L 37.84622987577949,13.288100724628311 L 37.84622917903856,13.288101628137559 L 37.71912040059371,13.434798761593187 z M 4.197387980286332,71.10000654241804 L 4.197387457705487,71.10000563726646 L 4.102348565980045,70.91351365128776 L 4.1023481395691315,70.91351269351647 L 4.088746797236994,70.87806953726232 L 4.027321049352401,70.71800280802796 L 4.027320726325665,70.71800181373531 L 4.002359706429006,70.62485665049942 L 3.9731370374992556,70.51580861164048 L 3.973136819859339,70.51580758789206 L 3.940391622571546,70.30911306670826 L 3.940391513093051,70.3091120252076 L 3.9294357436776495,70.10000636494482 L 3.9294357299804688,70.10000584172785 L 3.9294357299804688,59.90000941706121 L 3.9294357436776495,59.90000889384424 L 3.9403915130930525,59.69090323358145 L 3.940391622571547,59.6909021920808 L 3.973136819859332,59.48420767089704 L 3.973137037499249,59.4842066471486 L 4.02732072632568,59.28201344505369 L 4.027321049352416,59.28201245076106 L 4.10234813956912,59.086502565272625 L 4.102348565980034,59.086501607501326 L 4.19738745770547,58.900009621522635 L 4.197387980286315,58.90000871637105 L 4.311401081673149,58.724411450477085 L 4.311401697120255,58.724410603274855 L 4.4431454216205255,58.561706950929896 L 4.4431461231827765,58.561706171834764 L 4.591178523287135,58.41371191851186 L 4.591179301524317,58.41371121799117 L 4.732129313532101,58.299610715867814 L 4.753867697740999,58.28201326753664 L 4.753868540237932,58.28201265530044 L 4.929435288369029,58.167908001856645 L 4.929436199298069,58.167907475808136 L 5.115958700670151,58.07290673189922 L 5.115959656578375,58.0729063064593 L 5.31140087882017,57.997909733299416 L 5.311401872441483,57.99790941047268 L 5.513610332134918,57.94371046323218 L 5.51361135902136,57.94371024504094 L 5.720374545594881,57.91101082370394 L 5.720375582160482,57.911010714763854 L 5.9294354674061625,57.90000916909112 L 5.929435992917983,57.90000915527344 L 26.599998211183582,57.90000915527344 L 26.5999987366954,57.90000916909112 L 26.809058621926848,57.91101071476311 L 26.809059658520567,57.91101082370764 L 27.015819030397257,57.94371024504169 L 27.01582005725558,57.943710463228484 L 27.218028516931206,57.99790941046421 L 27.218029510613473,57.99790973331434 L 27.413466918237877,58.07290630649755 L 27.41346787393775,58.072906731839005 L 27.599998004769972,58.16790747580084 L 27.599998915763166,58.167908001870316 L 27.77556947851635,58.28201265527766 L 27.775570321096524,58.28201326756796 L 27.93825871722429,58.413711217950514 L 27.938259495552593,58.4137119185623 L 28.00757445691566,58.483010803784346 L 28.08628808091903,58.56170617182544 L 28.086288782479276,58.56170695093953 L 28.21802869243093,58.72441060344447 L 28.218029307622484,58.724411450280314 L 28.33205003841565,58.90000871625124 L 28.332050561162934,58.90000962165916 L 28.42708945274135,59.086501607349355 L 28.427089879274124,59.08650256543822 L 28.502109340161223,59.28201245099632 L 28.502109663020534,59.28201344480137 L 28.556297166547186,59.48420664697854 L 28.556297384260837,59.48420767107482 L 28.589038766870466,59.69090219225857 L 28.58903887631127,59.69090323339972 L 28.599262282919348,59.88596284238975 L 28.599998460414394,59.900008893753615 L 28.599998474121094,59.90000941715227 L 28.599998474121094,70.1000058416368 L 28.599998460414394,70.10000636503545 L 28.58903887631127,70.30911202538933 L 28.589038766870466,70.30911306653049 L 28.556297384260837,70.51580758771424 L 28.556297166547186,70.51580861181051 L 28.502109663020526,70.71800181398771 L 28.502109340161216,70.71800280779276 L 28.427089879274124,70.91351269335084 L 28.42708945274135,70.9135136514397 L 28.33205056116292,71.10000563712993 L 28.332050038415638,71.10000654253784 L 28.218029307622484,71.27560380850875 L 28.21802869243093,71.2756046553446 L 28.182773963326156,71.31914554736072 L 28.086288782479283,71.43830830784952 L 28.086288080919037,71.43830908696361 L 27.938259495552643,71.58630334022672 L 27.93825871722434,71.58630404083851 L 27.775570321096477,71.71800199122113 L 27.775569478516303,71.71800260351142 L 27.599998915763216,71.83210725691872 L 27.599998004770022,71.8321077829882 L 27.41346787393775,71.92710852695005 L 27.413466918237877,71.9271089522915 L 27.21802951061335,72.00210552547478 L 27.21802851693108,72.00210584832489 L 27.015820057255624,72.05630479556056 L 27.0158190303973,72.05630501374736 L 26.809059658520567,72.08900443508142 L 26.809058621926848,72.08900454402595 L 26.5999987366954,72.10000608969794 L 26.599998211183582,72.10000610351562 L 5.929435992917983,72.10000610351562 L 5.9294354674061625,72.10000608969794 L 5.720375582160472,72.0890045440252 L 5.72037454559487,72.08900443508512 L 5.513611359021281,72.0563050137481 L 5.513610332134839,72.05630479555685 L 5.311401872441605,72.00210584831642 L 5.311400878820293,72.0021055254897 L 5.115959656578318,71.92710895232973 L 5.115958700670094,71.92710852688981 L 4.929436199298069,71.83210778298093 L 4.929435288369029,71.83210725693242 L 4.753868540237938,71.71800260348863 L 4.753867697741004,71.71800199125244 L 4.591179301524317,71.5863040407979 L 4.591178523287135,71.58630334027721 L 4.443146123182795,71.43830908695432 L 4.443145421620544,71.43830830785919 L 4.341075016196648,71.31225123894154 L 4.311401697120216,71.27560465551416 L 4.31140108167311,71.27560380831191 L 4.197387980286332,71.10000654241804 z" />
</svg>